<?xml version="1.0" encoding="UTF-8" standalone="no"?>
<svg
   xmlns:dc="http://purl.org/dc/elements/1.1/"
   xmlns:cc="http://creativecommons.org/ns#"
   xmlns:rdf="http://www.w3.org/1999/02/22-rdf-syntax-ns#"
   xmlns:svg="http://www.w3.org/2000/svg"
   xmlns="http://www.w3.org/2000/svg"
   xmlns:sodipodi="http://sodipodi.sourceforge.net/DTD/sodipodi-0.dtd"
   xmlns:inkscape="http://www.inkscape.org/namespaces/inkscape"
   height="24px"
   viewBox="0 -960 960 960"
   width="24px"
   fill="#1f1f1f"
   version="1.1"
   id="svg4"
   sodipodi:docname="package-notif.svg"
   inkscape:version="1.0.2-2 (e86c870879, 2021-01-15)">
  <metadata
     id="metadata10">
    <rdf:RDF>
      <cc:Work
         rdf:about="">
        <dc:format>image/svg+xml</dc:format>
        <dc:type
           rdf:resource="http://purl.org/dc/dcmitype/StillImage" />
        <dc:title></dc:title>
      </cc:Work>
    </rdf:RDF>
  </metadata>
  <defs
     id="defs8" />
  <sodipodi:namedview
     pagecolor="#ffffff"
     bordercolor="#666666"
     borderopacity="1"
     objecttolerance="10"
     gridtolerance="10"
     guidetolerance="10"
     inkscape:pageopacity="0"
     inkscape:pageshadow="2"
     inkscape:window-width="1999"
     inkscape:window-height="1196"
     id="namedview6"
     showgrid="false"
     inkscape:zoom="42"
     inkscape:cx="14.296399"
     inkscape:cy="15.164188"
     inkscape:window-x="1643"
     inkscape:window-y="853"
     inkscape:window-maximized="0"
     inkscape:current-layer="layer3" />
  <g
     inkscape:groupmode="layer"
     id="layer1"
     inkscape:label="Layer 1">
    <path
       d="M 431.11111,-13.2 88.88889,-206.4 c -15.48148,-8.8 -27.5,-20.4 -36.05556,-34.8 C 44.277777,-255.6 40,-271.6 40,-289.2 v -381.6 c 0,-17.6 4.277777,-33.6 12.83333,-48 8.55556,-14.4 20.57408,-26 36.05556,-34.8 L 431.11111,-946.8 C 446.59259,-955.6 462.88889,-960 480,-960 c 17.11111,0 33.40741,4.4 48.88889,13.2 l 342.22222,193.2 c 15.48148,8.8 27.5,20.4 36.05556,34.8 8.55555,14.4 12.83333,30.4 12.83333,48 v 381.6 c 0,17.6 -4.27778,33.6 -12.83333,48 -8.55556,14.4 -20.57408,26 -36.05556,34.8 L 528.88889,-13.2 C 513.40741,-4.4 497.11111,0 480,0 462.88889,0 446.59259,-4.4 431.11111,-13.2 Z"
       id="path2-0"
       style="fill:#ffffff;fill-opacity:1;stroke-width:1.21106"
       sodipodi:nodetypes="ccssssccsccssssccsc" />
  </g>
  <g
     inkscape:groupmode="layer"
     id="g865"
     inkscape:label="Layer 2 copy"
     style="display:inline">
    <path
       d="M 440,-183 V -457 L 200,-596 v 274 z m 80,0 240,-139 v -274 l -240,139 z m -80,92 -280,-161 q -19,-11 -29.5,-29 -10.5,-18 -10.5,-40 v -318 q 0,-22 10.5,-40 10.5,-18 29.5,-29 l 280,-161 q 19,-11 40,-11 21,0 40,11 l 280,161 q 19,11 29.5,29 10.5,18 10.5,40 v 318 q 0,22 -10.5,40 -10.5,18 -29.5,29 L 520,-91 q -19,11 -40,11 -21,0 -40,-11 z m 200,-528 77,-44 -237,-137 -78,45 z m -160,93 78,-45 -237,-137 -78,45 z"
       id="path863" />
  </g>
  <g
     inkscape:groupmode="layer"
     id="layer3"
     inkscape:label="Layer 2 copy 1">
    <path
       id="path868"
       style="fill:#fe005a;fill-opacity:1;stroke:#ffffff;stroke-width:82.7077;stroke-linecap:round;stroke-linejoin:round;stroke-miterlimit:4;stroke-dasharray:none;stroke-opacity:1"
       d="M 479.93146,-758.64613 A 278.62043,278.65043 0 0 0 201.35385,-479.99999 278.62043,278.65043 0 0 0 479.93146,-201.35391 278.62043,278.65043 0 0 0 758.64613,-479.99999 278.62043,278.65043 0 0 0 479.93146,-758.64613 Z" />
    <text
       xml:space="preserve"
       style="font-style:normal;font-variant:normal;font-weight:normal;font-stretch:normal;font-size:480px;line-height:1.25;font-family:Chango;-inkscape-font-specification:'Chango, Normal';font-variant-ligatures:normal;font-variant-caps:normal;font-variant-numeric:normal;font-variant-east-asian:normal;fill:#ffffff;fill-opacity:1;stroke-width:40"
       x="360.95999"
       y="-311.28003"
       id="text877"><tspan
         sodipodi:role="line"
         id="tspan875"
         x="360.95999"
         y="-311.28003"
         style="font-style:normal;font-variant:normal;font-weight:normal;font-stretch:normal;font-size:480px;font-family:Chango;-inkscape-font-specification:'Chango, Normal';font-variant-ligatures:normal;font-variant-caps:normal;font-variant-numeric:normal;font-variant-east-asian:normal;fill:#ffffff;fill-opacity:1;stroke-width:40">!</tspan></text>
  </g>
</svg>
